<?xml version="1.0" encoding="UTF-8" standalone="no"?>
<!DOCTYPE svg PUBLIC "-//W3C//DTD SVG 1.1//EN" "http://www.w3.org/Graphics/SVG/1.1/DTD/svg11.dtd">
<svg width="100%" height="100%" viewBox="0 0 489 882" version="1.1" xmlns="http://www.w3.org/2000/svg" xmlns:xlink="http://www.w3.org/1999/xlink" xml:space="preserve" xmlns:serif="http://www.serif.com/" style="fill-rule:evenodd;clip-rule:evenodd;stroke-linejoin:round;stroke-miterlimit:2;">
    <g transform="matrix(1,0,0,1,-295.669,-99.2437)">
        <path d="M300.07,648.92C306.357,586.453 320.38,525.933 342.14,467.36C344.227,461.753 346.677,455.543 349.49,448.73C377.75,380.323 416.193,318.183 464.82,262.31C499.527,222.43 538.387,186.127 581.4,153.4C606.86,134.027 632.767,116.273 659.12,100.14C660.22,99.47 661.53,99.08 662.72,99.31C663.836,99.524 664.653,100.509 664.66,101.65C664.68,112.343 664.69,132.377 664.69,161.75C664.69,163.57 664.37,164.61 662.94,165.78C632.893,190.333 604.043,218.37 576.39,249.89C521.283,312.717 479.107,382.3 449.86,458.64C426.953,518.44 412.117,581.577 405.35,648.05C405.223,649.317 404.84,650.72 404.2,652.26C382.92,703.447 367.573,756.177 358.16,810.45C349.04,863.07 344.95,916.257 345.89,970.01C345.97,974.483 344.257,977.703 340.75,979.67C334.71,983.06 327.19,980.16 325.51,973.3C310.53,912.267 301.143,851.26 297.35,790.28C294.417,743.16 295.323,696.04 300.07,648.92Z" style="fill-rule:nonzero;"/>
        <path d="M665.87,328.28C681.623,351.42 695.89,375.613 708.67,400.86C708.97,401.46 708.863,401.977 708.35,402.41C626.39,472.077 564.507,556.597 522.7,655.97C503.28,702.123 488.757,751.493 479.13,804.08C469.337,857.58 464.83,911.093 465.61,964.62C465.677,969.247 465.447,972.333 464.92,973.88C463.713,977.44 461.053,979.537 456.94,980.17C451.49,981.01 446.63,978.15 445.31,972.78C424.39,887.8 413.55,799.78 415.64,712.75C417.54,634.11 430.9,555.48 457.03,481.28C481.17,412.733 515.613,349.677 560.36,292.11C591.2,252.43 625.797,216.283 664.15,183.67C664.503,183.363 664.68,183.447 664.68,183.92L664.68,323.75C664.68,325.78 664.69,326.54 665.87,328.28Z" style="fill-rule:nonzero;"/>
        <path d="M716.21,415.66C717.137,417.78 719.75,423.703 724.05,433.43C776.09,551.15 791.74,680.98 781.1,810.03C776.687,863.557 768.113,916.607 755.38,969.18C754.62,972.3 753.86,975.77 751.11,977.58C747.577,979.913 743.947,980.22 740.22,978.5C737.66,977.313 735.953,975.54 735.1,973.18C734.647,971.933 734.443,969.623 734.49,966.25C735.44,888.17 726.12,810.39 704.95,735.27C684.33,662.123 652.58,594.4 609.7,532.1C609.18,531.34 609.277,530.47 609.99,529.49C640.963,487.203 676.07,449.19 715.31,415.45C715.414,415.36 715.547,415.31 715.684,415.31C715.914,415.31 716.121,415.448 716.21,415.66Z" style="fill-rule:nonzero;"/>
    </g>
</svg>
